<?xml version="1.0" standalone="no"?>
<!DOCTYPE svg PUBLIC "-//W3C//DTD SVG 20010904//EN"
 "http://www.w3.org/TR/2001/REC-SVG-20010904/DTD/svg10.dtd">
<svg version="1.0" xmlns="http://www.w3.org/2000/svg"
 width="792.000000pt" height="792.000000pt" viewBox="0 0 792.000000 792.000000"
 preserveAspectRatio="xMidYMid meet">
<metadata>
Created by potrace 1.11, written by Peter Selinger 2001-2013
</metadata>
<g transform="translate(0.000000,792.000000) scale(0.100000,-0.100000)"
fill="#000000" stroke="none">
<path d="M1569 7916 c-2 -2 -31 -7 -64 -11 -88 -9 -227 -42 -330 -76 -103 -35
-285 -118 -285 -131 0 -4 -4 -7 -8 -6 -11 4 -129 -72 -207 -131 -80 -61 -229
-211 -290 -291 -28 -36 -55 -70 -62 -77 -6 -7 -15 -22 -18 -33 -3 -11 -9 -20
-13 -20 -4 0 -32 -48 -62 -107 -30 -60 -59 -111 -63 -114 -5 -3 -8 -9 -7 -13
1 -4 -12 -41 -29 -84 -49 -129 -84 -272 -99 -412 -9 -88 -9 -4851 1 -4920 10
-73 16 -110 24 -140 3 -14 7 -32 9 -40 6 -32 26 -106 34 -125 4 -11 18 -49 31
-85 25 -71 106 -242 119 -250 4 -3 10 -15 14 -27 4 -13 12 -23 17 -23 5 0 9
-6 9 -12 0 -7 9 -24 20 -38 11 -14 47 -61 81 -105 88 -114 214 -235 334 -320
112 -80 145 -100 251 -149 54 -26 106 -51 114 -55 41 -22 271 -85 350 -96 19
-3 55 -9 80 -13 58 -9 4818 -9 4890 0 48 6 109 17 175 32 107 23 235 65 308
101 26 13 47 22 47 19 0 -2 18 7 40 21 22 14 42 25 45 25 12 0 146 88 219 143
86 66 218 194 281 272 22 28 43 51 48 53 4 2 7 10 7 17 0 7 4 15 9 17 15 6
111 168 156 262 42 89 82 197 106 286 18 65 19 72 22 107 1 18 5 33 8 33 3 0
6 6 6 13 0 6 4 35 9 62 11 61 12 4865 2 4950 -4 33 -10 71 -13 85 -3 14 -8 39
-11 55 -30 173 -139 432 -249 595 -181 268 -409 464 -700 600 -85 40 -203 85
-248 94 -7 2 -19 6 -27 9 -15 5 -132 28 -240 47 -52 8 -4832 15 -4841 6z"/>
</g>
</svg>
